<?xml version="1.0" standalone="no"?>
<!DOCTYPE svg PUBLIC "-//W3C//DTD SVG 20010904//EN"
 "http://www.w3.org/TR/2001/REC-SVG-20010904/DTD/svg10.dtd">
<svg version="1.0" xmlns="http://www.w3.org/2000/svg"
 width="1080.000000pt" height="1080.000000pt" viewBox="0 0 1080.000000 1080.000000"
 preserveAspectRatio="xMidYMid meet">
<metadata>
Created by potrace 1.14, written by Peter Selinger 2001-2017
</metadata>
<g transform="translate(0.000000,1080.000000) scale(0.100000,-0.100000)"
fill="#000000" stroke="none">
<path d="M0 5400 l0 -5400 5400 0 5400 0 0 5400 0 5400 -5400 0 -5400 0 0
-5400z m5768 3119 c735 -53 1392 -370 1947 -940 157 -160 237 -260 355 -437
288 -431 435 -911 456 -1482 23 -625 -147 -1245 -479 -1745 -153 -231 -443
-572 -635 -749 -474 -434 -997 -678 -1637 -763 -113 -14 -249 -17 -1020 -20
-935 -4 -1093 0 -1224 37 -213 60 -293 147 -344 377 l-22 98 0 2525 0 2525 23
75 c33 105 78 184 132 233 25 23 56 59 68 79 45 73 130 129 247 163 145 42
208 44 1125 39 481 -3 935 -10 1008 -15z"/>
<path d="M4740 5455 l0 -1475 408 0 c224 0 459 5 522 10 202 18 373 68 549
160 342 181 539 400 646 723 67 202 92 410 75 627 -30 399 -173 706 -456 981
-272 263 -545 396 -904 439 -46 5 -254 10 -462 10 l-378 0 0 -1475z"/>
</g>
</svg>
